Coordinates
version=1
nRows=16
nColumns=30
inDegrees=yes

Units are S.I. units (second, meters, Newtons, ...)
Angles are in degrees.

endheader
time	floatyaw	floatroll	floatpitch	floatx	floaty	floatz	pro_sup_l	deviation_l	flexion_l	cmc_flexion_l	cmc_abduction_l	mp_flexion_l	ip_flexion_l	2mcp_flexion_l	2mcp_abduction_l	2pm_flexion_l	2md_flexion_l	3mcp_flexion_l	3mcp_abduction_l	3pm_flexion_l	3md_flexion_l	4mcp_flexion_l	4mcp_abduction_l	4pm_flexion_l	4md_flexion_l	5mcp_flexion_l	5mcp_abduction_l	5pm_flexion_l	5md_flexion_l
0.005000	-160.147433	-5.066637	-73.570646	-0.059002	-0.098562	-0.090455	116.739777	40.279665	-13.588779	19.352536	37.957103	-21.103654	-54.637742	21.988080	9.180428	55.103623	43.695945	39.538046	6.382217	52.025298	39.820809	42.282902	-4.746420	49.847683	51.571016	24.986006	-14.697832	61.149291	66.445289
0.015000	-160.147433	-5.066637	-73.570646	-0.058904	-0.094957	-0.090080	116.264440	40.551128	-13.471155	19.234388	38.793650	-21.518095	-55.721942	22.682841	9.259582	54.263150	42.968509	40.353862	6.412915	50.891674	39.363014	43.222489	-4.746592	48.899566	51.390620	25.758421	-14.740024	60.528847	66.619417
0.025000	-160.147433	-5.066637	-73.570646	-0.058770	-0.091101	-0.089701	115.708734	40.812636	-13.423967	19.093934	39.378161	-21.905300	-56.735354	23.512561	9.366844	53.258023	42.177254	41.130788	6.438713	49.615503	38.971562	44.229826	-4.761464	47.772950	51.042026	26.668716	-14.771272	59.703506	66.602461
0.035000	-160.147433	-5.066637	-73.570646	-0.058671	-0.087560	-0.089301	115.007641	41.021669	-13.363356	18.997255	39.668404	-22.331936	-57.629287	24.400343	9.529715	52.354650	41.474009	41.884125	6.441256	48.434536	38.664324	45.324447	-4.803595	46.509170	50.564890	27.720668	-14.773752	58.689488	66.445335
0.045000	-160.147433	-5.066637	-73.570646	-0.058631	-0.084824	-0.088895	114.167253	41.131450	-13.214648	18.987175	39.727054	-22.826263	-58.377981	25.175199	9.743256	51.842641	41.015849	42.557526	6.408215	47.615411	38.448889	46.418395	-4.872646	45.250765	50.037586	28.801847	-14.736581	57.598319	66.223740
0.055000	-160.147433	-5.066637	-73.570646	-0.058619	-0.083138	-0.088529	113.261096	41.111606	-12.942429	19.054524	39.677875	-23.351248	-58.969053	25.666269	9.976484	51.880741	40.881158	43.062074	6.341895	47.312854	38.307321	47.358917	-4.955069	44.174489	49.552104	29.729697	-14.664336	56.594176	66.020179
0.065000	-160.147433	-5.066637	-73.570646	-0.058570	-0.082450	-0.088260	112.396577	40.961572	-12.562953	19.143369	39.638222	-23.818602	-59.395153	25.796097	10.192168	52.408455	41.025549	43.332293	6.259582	47.491250	38.200947	48.004219	-5.031364	43.411216	49.183271	30.336165	-14.576365	55.822503	65.898840
0.075000	-160.147433	-5.066637	-73.570646	-0.058425	-0.082481	-0.088134	111.668138	40.709170	-12.130049	19.183028	39.670071	-24.131936	-59.653255	25.613157	10.366192	53.184232	41.308678	43.361518	6.184863	47.958125	38.092820	48.287224	-5.086187	42.998147	48.966942	30.538750	-14.497202	55.354355	65.886188
0.085000	-160.147433	-5.066637	-73.570646	-0.058164	-0.082863	-0.088167	111.120539	40.395783	-11.701632	19.120993	39.772287	-24.229387	-59.748930	25.250255	10.493815	53.919607	41.570485	43.198277	6.135929	48.476122	37.967771	48.233398	-5.114807	42.882053	48.895399	30.359405	-14.444686	55.174563	65.967131
0.095000	-160.147433	-5.066637	-73.570646	-0.057808	-0.083282	-0.088342	110.738691	40.057875	-11.307649	18.936564	39.905868	-24.103008	-59.699132	24.847026	10.582591	54.415440	41.703784	42.913965	6.118297	48.874019	37.834378	47.931477	-5.122832	42.959818	48.928321	29.890603	-14.423151	55.209311	66.097276
0.105000	-160.147433	-5.066637	-73.570646	-0.057399	-0.083547	-0.088620	110.465109	39.715682	-10.939298	18.634924	40.026961	-23.792580	-59.530160	24.489765	10.642423	54.620702	41.682840	42.567546	6.125096	49.096331	37.710895	47.483531	-5.121020	43.126916	49.010964	29.239356	-14.424462	55.367948	66.222992
0.115000	-160.147433	-5.066637	-73.570646	-0.056977	-0.083612	-0.088953	110.231825	39.373425	-10.563610	18.234498	40.107631	-23.365154	-59.272437	24.197280	10.681519	54.601531	41.545457	42.188480	6.142881	49.183466	37.608917	46.966036	-5.119265	43.309686	49.091355	28.485227	-14.434360	55.575648	66.299736
0.125000	-160.147433	-5.066637	-73.570646	-0.056559	-0.083526	-0.089298	109.988218	39.027128	-10.150153	17.758414	40.139939	-22.892145	-58.955671	23.945168	10.707399	54.466598	41.354117	41.782544	6.158796	49.214693	37.526599	46.418511	-5.122989	43.472931	49.133064	27.669801	-14.439378	55.787601	66.303707
0.135000	-160.147433	-5.066637	-73.570646	-0.056144	-0.083383	-0.089627	109.712495	38.672521	-9.691206	17.231724	40.130015	-22.430979	-58.606521	23.700868	10.727091	54.305278	41.163691	41.349908	6.165539	49.254415	37.453573	45.855439	-5.132852	43.608749	49.123318	26.810759	-14.430900	55.987634	66.235711
0.145000	-160.147433	-5.066637	-73.570646	-0.055725	-0.083263	-0.089925	109.407234	38.308286	-9.205039	16.680398	40.090155	-22.015451	-58.248174	23.445911	10.744347	54.165592	41.007642	40.899915	6.162569	49.326260	37.381259	45.285043	-5.146767	43.719488	49.075093	25.921178	-14.405814	56.178747	66.116554
0.155000	-160.147433	-5.066637	-73.570646	-0.055302	-0.083214	-0.090199	109.088231	37.935162	-8.724876	16.129392	40.032663	-21.657337	-57.899555	23.178894	10.757464	54.063559	40.899189	40.453210	6.153990	49.417528	37.309933	44.720215	-5.162343	43.806587	49.020202	25.018708	-14.365290	56.372719	65.974130
